HIERARCHY
ROOT Hips
{
    OFFSET   0.000000   0.000000   0.000000
    CHANNELS 6 Xposition Yposition Zposition Zrotation Xrotation Yrotation
    JOINT Chest
    {
        OFFSET   0.000000   8.007230   0.000000
        CHANNELS 3 Zrotation Xrotation Yrotation
        JOINT Chest2
        {
            OFFSET   0.000000  22.077100   0.000000
            CHANNELS 3 Zrotation Xrotation Yrotation
            JOINT Neck
            {
                OFFSET   0.000000  23.255100   0.000000
                CHANNELS 3 Zrotation Xrotation Yrotation
                JOINT Head
                {
                    OFFSET   0.000000  14.370100   1.956600
                    CHANNELS 3 Zrotation Xrotation Yrotation
                    End Site
                    {
                        OFFSET   0.000000  19.566000   0.000000
                    }
                }
            }
            JOINT LeftCollar
            {
                OFFSET   3.911900  19.017000  -0.467063
                CHANNELS 3 Zrotation Xrotation Yrotation
                JOINT LeftShoulder
                {
                    OFFSET  10.383700   0.000000   0.000000
                    CHANNELS 3 Zrotation Xrotation Yrotation
                    JOINT LeftElbow
                    {
                        OFFSET  26.662100   0.001193   0.000980
                        CHANNELS 3 Zrotation Xrotation Yrotation
                        JOINT LeftWrist
                        {
                            OFFSET  28.869000  -0.000059  -0.000082
                            CHANNELS 3 Zrotation Xrotation Yrotation
                            JOINT LeftFinger0
                            {
                                OFFSET   2.044650  -2.323450   3.252850
                                CHANNELS 3 Zrotation Xrotation Yrotation
                                JOINT LeftFinger01
                                {
                                    OFFSET   3.088130   0.000000   0.000000
                                    CHANNELS 3 Zrotation Xrotation Yrotation
                                    JOINT LeftFinger02
                                    {
                                        OFFSET   2.639460   0.000000   0.000000
                                        CHANNELS 3 Zrotation Xrotation Yrotation
                                        End Site
                                        {
                                            OFFSET   2.582190   0.000000   0.000000
                                        }
                                    }
                                }
                            }
                            JOINT LeftFinger1
                            {
                                OFFSET   8.364480   0.000000   3.252850
                                CHANNELS 3 Zrotation Xrotation Yrotation
                                JOINT LeftFinger11
                                {
                                    OFFSET   4.646930   0.000000   0.000000
                                    CHANNELS 3 Zrotation Xrotation Yrotation
                                    JOINT LeftFinger12
                                    {
                                        OFFSET   2.323470   0.000000   0.000000
                                        CHANNELS 3 Zrotation Xrotation Yrotation
                                        End Site
                                        {
                                            OFFSET   2.273050   0.000000   0.000000
                                        }
                                    }
                                }
                            }
                            JOINT LeftFinger2
                            {
                                OFFSET   8.364490   0.000016   1.078090
                                CHANNELS 3 Zrotation Xrotation Yrotation
                                JOINT LeftFinger21
                                {
                                    OFFSET   5.111610   0.000000   0.000000
                                    CHANNELS 3 Zrotation Xrotation Yrotation
                                    JOINT LeftFinger22
                                    {
                                        OFFSET   2.788150   0.000016   0.000000
                                        CHANNELS 3 Zrotation Xrotation Yrotation
                                        End Site
                                        {
                                            OFFSET   2.727660   0.000000   0.000000
                                        }
                                    }
                                }
                            }
                            JOINT LeftFinger3
                            {
                                OFFSET   7.899780   0.000015  -1.078090
                                CHANNELS 3 Zrotation Xrotation Yrotation
                                JOINT LeftFinger31
                                {
                                    OFFSET   4.646930   0.000000   0.000000
                                    CHANNELS 3 Zrotation Xrotation Yrotation
                                    JOINT LeftFinger32
                                    {
                                        OFFSET   2.323470   0.000000   0.000000
                                        CHANNELS 3 Zrotation Xrotation Yrotation
                                        End Site
                                        {
                                            OFFSET   2.273050   0.000000   0.000000
                                        }
                                    }
                                }
                            }
                            JOINT LeftFinger4
                            {
                                OFFSET   7.435090   0.000000  -3.252850
                                CHANNELS 3 Zrotation Xrotation Yrotation
                                JOINT LeftFinger41
                                {
                                    OFFSET   3.717550   0.000000   0.000000
                                    CHANNELS 3 Zrotation Xrotation Yrotation
                                    JOINT LeftFinger42
                                    {
                                        OFFSET   1.858770   0.000000   0.000000
                                        CHANNELS 3 Zrotation Xrotation Yrotation
                                        End Site
                                        {
                                            OFFSET   1.818440   0.000000   0.000000
                                        }
                                    }
                                }
                            }
                        }
                    }
                }
            }
            JOINT RightCollar
            {
                OFFSET  -3.911910  19.017000  -0.467062
                CHANNELS 3 Zrotation Xrotation Yrotation
                JOINT RightShoulder
                {
                    OFFSET -10.383700   0.000014   0.000000
                    CHANNELS 3 Zrotation Xrotation Yrotation
                    JOINT RightElbow
                    {
                        OFFSET -26.662100   0.001225   0.001091
                        CHANNELS 3 Zrotation Xrotation Yrotation
                        JOINT RightWrist
                        {
                            OFFSET -28.869000  -0.000020  -0.000085
                            CHANNELS 3 Zrotation Xrotation Yrotation
                            JOINT RightFinger0
                            {
                                OFFSET  -2.044650  -2.323490   3.252850
                                CHANNELS 3 Zrotation Xrotation Yrotation
                                JOINT RightFinger01
                                {
                                    OFFSET  -3.088130   0.000000   0.000000
                                    CHANNELS 3 Zrotation Xrotation Yrotation
                                    JOINT RightFinger02
                                    {
                                        OFFSET  -2.639460   0.000000   0.000000
                                        CHANNELS 3 Zrotation Xrotation Yrotation
                                        End Site
                                        {
                                            OFFSET  -2.582190   0.000000   0.000000
                                        }
                                    }
                                }
                            }
                            JOINT RightFinger1
                            {
                                OFFSET  -8.364480   0.000000   3.252850
                                CHANNELS 3 Zrotation Xrotation Yrotation
                                JOINT RightFinger11
                                {
                                    OFFSET  -4.646930   0.000000   0.000000
                                    CHANNELS 3 Zrotation Xrotation Yrotation
                                    JOINT RightFinger12
                                    {
                                        OFFSET  -2.323470   0.000000   0.000000
                                        CHANNELS 3 Zrotation Xrotation Yrotation
                                        End Site
                                        {
                                            OFFSET  -2.273050   0.000000   0.000000
                                        }
                                    }
                                }
                            }
                            JOINT RightFinger2
                            {
                                OFFSET  -8.364480   0.000000   1.078090
                                CHANNELS 3 Zrotation Xrotation Yrotation
                                JOINT RightFinger21
                                {
                                    OFFSET  -5.111620   0.000000   0.000000
                                    CHANNELS 3 Zrotation Xrotation Yrotation
                                    JOINT RightFinger22
                                    {
                                        OFFSET  -2.788160   0.000000   0.000000
                                        CHANNELS 3 Zrotation Xrotation Yrotation
                                        End Site
                                        {
                                            OFFSET  -2.727660   0.000000   0.000000
                                        }
                                    }
                                }
                            }
                            JOINT RightFinger3
                            {
                                OFFSET  -7.899780   0.000000  -1.078090
                                CHANNELS 3 Zrotation Xrotation Yrotation
                                JOINT RightFinger31
                                {
                                    OFFSET  -4.646930   0.000000   0.000000
                                    CHANNELS 3 Zrotation Xrotation Yrotation
                                    JOINT RightFinger32
                                    {
                                        OFFSET  -2.323470   0.000000   0.000000
                                        CHANNELS 3 Zrotation Xrotation Yrotation
                                        End Site
                                        {
                                            OFFSET  -2.273050   0.000000   0.000000
                                        }
                                    }
                                }
                            }
                            JOINT RightFinger4
                            {
                                OFFSET  -7.435090   0.000000  -3.252850
                                CHANNELS 3 Zrotation Xrotation Yrotation
                                JOINT RightFinger41
                                {
                                    OFFSET  -3.717550   0.000000   0.000000
                                    CHANNELS 3 Zrotation Xrotation Yrotation
                                    JOINT RightFinger42
                                    {
                                        OFFSET  -1.858760   0.000000   0.000000
                                        CHANNELS 3 Zrotation Xrotation Yrotation
                                        End Site
                                        {
                                            OFFSET  -1.818440   0.000000   0.000000
                                        }
                                    }
                                }
                            }
                        }
                    }
                }
            }
        }
    }
    JOINT LeftHip
    {
        OFFSET   9.783030   0.000000   0.000000
        CHANNELS 3 Zrotation Xrotation Yrotation
        JOINT LeftKnee
        {
            OFFSET   0.000063 -41.789100   0.000608
            CHANNELS 3 Zrotation Xrotation Yrotation
            JOINT LeftAnkle
            {
                OFFSET   0.000048 -41.133200  -0.000184
                CHANNELS 3 Zrotation Xrotation Yrotation
                JOINT LeftToe
                {
                    OFFSET   0.000000  -6.358960  14.674500
                    CHANNELS 3 Zrotation Xrotation Yrotation
                    End Site
                    {
                        OFFSET   0.000000   0.000000   3.913200
                    }
                }
            }
        }
    }
    JOINT RightHip
    {
        OFFSET  -9.783030   0.000000   0.000000
        CHANNELS 3 Zrotation Xrotation Yrotation
        JOINT RightKnee
        {
            OFFSET   0.000071 -41.789100   0.001239
            CHANNELS 3 Zrotation Xrotation Yrotation
            JOINT RightAnkle
            {
                OFFSET   0.000037 -41.133200  -0.000166
                CHANNELS 3 Zrotation Xrotation Yrotation
                JOINT RightToe
                {
                    OFFSET   0.000000  -6.358960  14.674500
                    CHANNELS 3 Zrotation Xrotation Yrotation
                    End Site
                    {
                        OFFSET   0.000000   0.000000   3.913200
                    }
                }
            }
        }
    }
}
MOTION
Frames: 4
Frame Time:   0.016667
 -0.172926  89.564800  -3.709650  -5.251410  -9.609580  -9.311160   0.937384   6.017550   0.714069   1.813970  12.045600   1.339630   1.605100   0.036511   0.003814   2.637270   0.073650  -0.323050  -5.184300  -0.740658  -1.514110 -71.412100  21.927700  -1.433130  -3.192680  -4.363330 -19.593800  14.910300 -16.218600  11.648400  37.502900  27.947400 -50.453400 -32.152600   0.004974   0.003185 -11.076300  -0.001167   0.002827 -26.821600   5.049780  -9.875660 -22.302100   0.004971   0.004214 -15.605300   0.001783   0.003271 -27.948200   1.442810  -2.717070 -31.889000  -0.004525  -0.000292 -21.238100  -0.001681  -0.009700 -26.959700   1.395670  -2.741580 -26.977100  -0.000583  -0.008146 -17.966700   0.002102  -0.006029 -26.340100   1.365920  -2.756500 -39.559500   0.000127  -0.004908 -26.346600  -0.000087  -0.005463   9.607420  -1.583230   6.930470  69.381200  16.161200  -4.688670   2.605780 -10.630100  11.379400 -12.979200  -9.261190   7.917850 -45.835200  28.615100  62.090100  14.746300   0.003525  -0.008287   2.373160   0.000121   0.000286  26.560500   5.353270  10.571500  22.136800   0.001422  -0.001268  15.495800   0.002949   0.000756  28.183000   3.818700   7.084800  35.320900   0.001920  -0.002788  23.523700  -0.004507  -0.004030  26.759800   1.565320   3.100840  26.802300  -0.002036  -0.008808  17.850300   0.001633  -0.001196  27.201700  -0.480769  -0.935321  40.808400  -0.003610  -0.001888  27.178400  -0.006665  -0.001755   2.435220  13.145400   1.341720   0.952188  -0.039415   3.258910  -0.400194  -4.267310   5.878810  -0.000000   0.000000  -0.000000   4.911450   8.384300  -2.426110  -2.601040   5.506540  -3.404730   0.418637  -4.428270   1.891150  -0.000000   0.000000   0.000000
 -0.167011  89.564800  -3.708460  -5.264980  -9.645280  -9.306950   0.945025   6.039750   0.690175   1.831800  12.089800   1.290320   1.604960   0.037994   0.003785   2.637200   0.076827  -0.295156  -5.221940  -0.779074  -1.480670 -71.434800  22.021200  -1.446410  -3.158040  -4.393810 -19.561600  14.932800 -16.219500  11.647600  37.493700  27.934200 -50.453700 -32.146000   0.004967   0.003183 -11.073000  -0.001155   0.002830 -26.820200   5.060520  -9.898160 -22.303300   0.004968   0.004204 -15.608400   0.001780   0.003265 -27.949500   1.454030  -2.737920 -31.899300  -0.004515  -0.000244 -21.244900  -0.001676  -0.009683 -26.961400   1.406600  -2.762580 -26.983400  -0.000585  -0.008131 -17.970900   0.002099  -0.006015 -26.344000   1.376960  -2.777470 -39.566200   0.000125  -0.004893 -26.351000  -0.000085  -0.005458   9.614860  -1.615350   6.981470  69.415200  16.185600  -4.717390   2.553240 -10.601800  11.410000 -13.004200  -9.218750   7.892650 -45.839800  28.653000  62.158000  14.800400   0.003532  -0.008284   2.400220   0.000117   0.000275  26.585300   5.341070  10.533700  22.154700   0.001412  -0.001246  15.508300   0.002944   0.000785  28.186400   3.816230   7.078980  35.347400   0.001909  -0.002744  23.541400  -0.004518  -0.004007  26.773500   1.568560   3.105350  26.816100  -0.002038  -0.008791  17.859500   0.001626  -0.001203  27.209300  -0.481346  -0.935828  40.819900  -0.003623  -0.001840  27.186000  -0.006654  -0.001762   2.439000  13.170000   1.341810   0.951962  -0.018437   3.251170  -0.399142  -4.277170   5.877330  -0.000000   0.000000   0.000000   4.927110   8.406050  -2.433650  -2.615670   5.531450  -3.426800   0.423854  -4.438250   1.909760   0.000000   0.000000   0.000000
 -0.157153  89.564800  -3.704650  -5.286800  -9.705010  -9.296080   0.959430   6.074260   0.647012   1.865300  12.158300   1.201230   1.604830   0.042978   0.003720   2.637090   0.087105  -0.247377  -5.291050  -0.841372  -1.416620 -71.500000  22.118700  -1.467130  -3.082870  -4.424960 -19.505600  14.954700 -16.225200  11.641800  37.493100  27.911700 -50.472500 -32.139500   0.004954   0.003181 -11.069700  -0.001143   0.002834 -26.828700   5.074930  -9.920710 -22.311400   0.004960   0.004183 -15.618000   0.001774   0.003249 -27.953400   1.465250  -2.758770 -31.927000  -0.004494  -0.000134 -21.263400  -0.001659  -0.009641 -26.967400   1.417540  -2.783580 -27.006900  -0.000592  -0.008093 -17.986600   0.002088  -0.005984 -26.360900   1.388000  -2.798440 -39.592300   0.000122  -0.004857 -26.368400  -0.000083  -0.005445   9.632160  -1.666010   7.076800  69.455700  16.261900  -4.754990   2.469040 -10.529900  11.453600 -13.045900  -9.128820   7.842360 -45.843300  28.715900  62.277300  14.854600   0.003543  -0.008276   2.427280   0.000110   0.000264  26.624100   5.328860  10.495900  22.184200   0.001387  -0.001200  15.528900   0.002931   0.000860  28.193100   3.813750   7.073150  35.399100   0.001878  -0.002640  23.575800  -0.004545  -0.003954  26.800700   1.579560   3.123300  26.843900  -0.002046  -0.008749  17.878100   0.001605  -0.001219  27.233000  -0.481923  -0.936335  40.855700  -0.003659  -0.001731  27.209900  -0.006627  -0.001777   2.445500  13.215100   1.342010   0.951742   0.002540   3.239540  -0.397675  -4.287070   5.869230  -0.000000   0.000000  -0.000000   4.953460   8.446630  -2.454980  -2.639850   5.568460  -3.462950   0.432455  -4.454750   1.944900  -0.000000   0.000000   0.000000
 -0.149254  89.564800  -3.697440  -5.303280  -9.754540  -9.278510   0.975056   6.096420   0.605835   1.901150  12.202100   1.116150   1.604860   0.052464   0.003629   2.637010   0.106205  -0.204520  -5.356490  -0.884135  -1.347460 -71.616900  22.123300  -1.482030  -2.967770  -4.369310 -19.450500  14.947000 -16.238800  11.617000  37.473800  27.886200 -50.533100 -32.154000   0.004943   0.003180 -11.077100  -0.001149   0.002835 -26.867800   5.079260  -9.918380 -22.343100   0.004943   0.004156 -15.641100   0.001765   0.003227 -27.962600   1.459680  -2.747550 -31.986600  -0.004465   0.000026 -21.303100  -0.001629  -0.009579 -26.980800   1.412350  -2.772170 -27.065800  -0.000602  -0.008035 -18.025700   0.002068  -0.005941 -26.401500   1.384030  -2.786430 -39.652700   0.000120  -0.004804 -26.408600  -0.000083  -0.005426   9.651250  -1.699300   7.165650  69.462400  16.377100  -4.766680   2.402010 -10.417100  11.476700 -13.078400  -8.999980   7.786030 -45.831300  28.763100  62.387400  14.842600   0.003548  -0.008265   2.421270   0.000107   0.000274  26.652000   5.340150  10.505600  22.208300   0.001352  -0.001138  15.545700   0.002906   0.000973  28.197400   3.831500   7.104900  35.460600   0.001825  -0.002488  23.616800  -0.004585  -0.003880  26.834100   1.603750   3.167660  26.880200  -0.002062  -0.008691  17.902200   0.001571  -0.001242  27.280500  -0.461596  -0.895001  40.926300  -0.003723  -0.001573  27.256900  -0.006586  -0.001802   2.450430  13.265400   1.345980   0.951558   0.001230   3.233470  -0.393110  -4.287050   5.850030  -0.000000   0.000000   0.000000   4.976070   8.490220  -2.491030  -2.658610   5.588020  -3.497120   0.439055  -4.467640   1.984150   0.000000   0.000000   0.000000
